<svg width="40" height="40" viewBox="0 0 40 40" fill="none" xmlns="http://www.w3.org/2000/svg">
<path d="M33.6849 15.2101V13.6723C33.6849 9.9916 32.3823 6.57143 30.021 4.03361C27.6008 1.42857 24.2731 0 20.6428 0H19.3739C15.7437 0 12.4159 1.42857 9.99578 4.03361C7.63443 6.57143 6.33191 9.9916 6.33191 13.6723V15.2101C3.46637 15.4034 1.18906 17.7899 1.18906 20.7059V23.1092C1.18906 26.1429 3.65965 28.6134 6.69326 28.6134H9.7941C10.3487 28.6134 10.8025 28.1597 10.8025 27.605V16.2017C10.8025 15.6471 10.3487 15.1933 9.7941 15.1933H8.34872V13.6723C8.34872 7.02521 13.0882 2.01681 19.3655 2.01681H20.6344C26.9202 2.01681 31.6512 7.02521 31.6512 13.6723V15.1933H30.2059C29.6512 15.1933 29.1975 15.6471 29.1975 16.2017V27.5966C29.1975 28.1513 29.6512 28.605 30.2059 28.605H31.6176C31.2059 33.8655 27.584 35.084 25.9033 35.3613C25.4412 33.9412 24.105 32.916 22.5336 32.916H20.0126C18.063 32.916 16.4748 34.5042 16.4748 36.4538C16.4748 38.4034 18.063 40 20.0126 40H22.542C24.1723 40 25.542 38.8908 25.9538 37.395C26.7773 37.2773 28.0798 36.9832 29.3739 36.2269C31.1975 35.1597 33.3571 32.9832 33.6428 28.5966C36.5252 28.4202 38.8109 26.0252 38.8109 23.1008V20.6975C38.8193 17.7899 36.5504 15.395 33.6849 15.2101ZM8.8025 26.5882H6.71007C4.7857 26.5882 3.22267 25.0252 3.22267 23.1008V20.6975C3.22267 18.7731 4.7857 17.2101 6.71007 17.2101H8.8025V26.5882ZM22.542 37.9832H20.0126C19.1723 37.9832 18.4916 37.3025 18.4916 36.4622C18.4916 35.6218 19.1723 34.9412 20.0126 34.9412H22.542C23.3823 34.9412 24.063 35.6218 24.063 36.4622C24.063 37.3025 23.3823 37.9832 22.542 37.9832ZM36.8025 23.1008C36.8025 25.0252 35.2395 26.5882 33.3151 26.5882H31.2227V17.2101H33.3151C35.2395 17.2101 36.8025 18.7731 36.8025 20.6975V23.1008Z" fill="#00B307"/>
</svg>
